<svg width="1024" height="753" viewBox="0 0 1024 753" fill="none" xmlns="http://www.w3.org/2000/svg">
<g clip-path="url(#clip0_122_130)">
<rect width="1024" height="753" fill="#121214"/>
<g opacity="0.2" filter="url(#filter0_f_122_130)">
<ellipse cx="582.5" cy="170" rx="670.5" ry="350" fill="#338AF3"/>
</g>
<path d="M103.035 406C104.53 406 105.662 406.63 106.431 407.891C107.213 409.138 107.605 410.953 107.605 413.336C107.605 415.719 107.213 417.541 106.431 418.802C105.662 420.063 104.53 420.693 103.035 420.693C101.554 420.693 100.422 420.063 99.639 418.802C98.8564 417.541 98.4651 415.719 98.4651 413.336C98.4651 410.967 98.8564 409.152 99.639 407.891C100.422 406.63 101.554 406 103.035 406ZM99.9534 413.336C99.9534 415.026 100.107 416.35 100.415 417.306L105.068 408.099C104.579 407.448 103.901 407.122 103.035 407.122C102.071 407.122 101.316 407.635 100.771 408.66C100.226 409.672 99.9534 411.23 99.9534 413.336ZM103.035 419.55C104.013 419.55 104.775 419.044 105.32 418.033C105.865 417.008 106.137 415.442 106.137 413.336C106.137 411.549 105.963 410.163 105.613 409.18L100.96 418.469C101.463 419.19 102.154 419.55 103.035 419.55Z" fill="url(#paint0_linear_122_130)" fill-opacity="0.6"/>
<path d="M104.293 443.135H107.374V444.236H99.3874V443.135H102.951V431.455L99.5551 433.471L98.9682 432.536L103.161 429.959H104.293V443.135Z" fill="url(#paint1_linear_122_130)" fill-opacity="0.6"/>
<path d="M103.035 453.502C104.53 453.502 105.662 454.133 106.431 455.393C107.213 456.64 107.605 458.455 107.605 460.838C107.605 463.221 107.213 465.043 106.431 466.304C105.662 467.565 104.53 468.195 103.035 468.195C101.554 468.195 100.422 467.565 99.639 466.304C98.8564 465.043 98.4651 463.221 98.4651 460.838C98.4651 458.469 98.8564 456.654 99.639 455.393C100.422 454.133 101.554 453.502 103.035 453.502ZM99.9534 460.838C99.9534 462.529 100.107 463.852 100.415 464.808L105.068 455.601C104.579 454.95 103.901 454.624 103.035 454.624C102.071 454.624 101.316 455.137 100.771 456.162C100.226 457.174 99.9534 458.732 99.9534 460.838ZM103.035 467.052C104.013 467.052 104.775 466.546 105.32 465.535C105.865 464.51 106.137 462.944 106.137 460.838C106.137 459.051 105.963 457.665 105.613 456.682L100.96 465.971C101.463 466.692 102.154 467.052 103.035 467.052Z" fill="url(#paint2_linear_122_130)" fill-opacity="0.6"/>
<path d="M104.293 490.637H107.374V491.738H99.3874V490.637H102.951V478.957L99.5551 480.973L98.9682 480.038L103.161 477.461H104.293V490.637Z" fill="url(#paint3_linear_122_130)" fill-opacity="0.6"/>
<path d="M104.293 514.388H107.374V515.489H99.3874V514.388H102.951V502.708L99.5551 504.724L98.9682 503.789L103.161 501.212H104.293V514.388Z" fill="url(#paint4_linear_122_130)" fill-opacity="0.6"/>
<path d="M103.035 524.755C104.53 524.755 105.662 525.386 106.431 526.646C107.213 527.893 107.605 529.708 107.605 532.091C107.605 534.474 107.213 536.296 106.431 537.557C105.662 538.818 104.53 539.448 103.035 539.448C101.554 539.448 100.422 538.818 99.639 537.557C98.8564 536.296 98.4651 534.474 98.4651 532.091C98.4651 529.722 98.8564 527.907 99.639 526.646C100.422 525.386 101.554 524.755 103.035 524.755ZM99.9534 532.091C99.9534 533.782 100.107 535.105 100.415 536.061L105.068 526.854C104.579 526.203 103.901 525.878 103.035 525.878C102.071 525.878 101.316 526.39 100.771 527.415C100.226 528.427 99.9534 529.985 99.9534 532.091ZM103.035 538.305C104.013 538.305 104.775 537.8 105.32 536.788C105.865 535.763 106.137 534.197 106.137 532.091C106.137 530.304 105.963 528.919 105.613 527.935L100.96 537.225C101.463 537.945 102.154 538.305 103.035 538.305Z" fill="url(#paint5_linear_122_130)" fill-opacity="0.6"/>
<path d="M104.293 561.89H107.374V562.992H99.3874V561.89H102.951V550.21L99.5551 552.226L98.9682 551.291L103.161 548.714H104.293V561.89Z" fill="url(#paint6_linear_122_130)" fill-opacity="0.6"/>
<path d="M103.035 572.257C104.53 572.257 105.662 572.888 106.431 574.149C107.213 575.396 107.605 577.211 107.605 579.594C107.605 581.977 107.213 583.798 106.431 585.059C105.662 586.32 104.53 586.95 103.035 586.95C101.554 586.95 100.422 586.32 99.639 585.059C98.8564 583.798 98.4651 581.977 98.4651 579.594C98.4651 577.224 98.8564 575.409 99.639 574.149C100.422 572.888 101.554 572.257 103.035 572.257ZM99.9534 579.594C99.9534 581.284 100.107 582.607 100.415 583.563L105.068 574.356C104.579 573.705 103.901 573.38 103.035 573.38C102.071 573.38 101.316 573.892 100.771 574.918C100.226 575.929 99.9534 577.488 99.9534 579.594ZM103.035 585.807C104.013 585.807 104.775 585.302 105.32 584.29C105.865 583.265 106.137 581.699 106.137 579.594C106.137 577.806 105.963 576.421 105.613 575.437L100.96 584.727C101.463 585.447 102.154 585.807 103.035 585.807Z" fill="url(#paint7_linear_122_130)" fill-opacity="0.6"/>
<path d="M103.035 596.008C104.53 596.008 105.662 596.639 106.431 597.9C107.213 599.147 107.605 600.962 107.605 603.345C107.605 605.728 107.213 607.549 106.431 608.81C105.662 610.071 104.53 610.701 103.035 610.701C101.554 610.701 100.422 610.071 99.639 608.81C98.8564 607.549 98.4651 605.728 98.4651 603.345C98.4651 600.975 98.8564 599.16 99.639 597.9C100.422 596.639 101.554 596.008 103.035 596.008ZM99.9534 603.345C99.9534 605.035 100.107 606.358 100.415 607.314L105.068 598.107C104.579 597.456 103.901 597.131 103.035 597.131C102.071 597.131 101.316 597.643 100.771 598.669C100.226 599.68 99.9534 601.239 99.9534 603.345ZM103.035 609.558C104.013 609.558 104.775 609.053 105.32 608.041C105.865 607.016 106.137 605.451 106.137 603.345C106.137 601.557 105.963 600.172 105.613 599.188L100.96 608.478C101.463 609.198 102.154 609.558 103.035 609.558Z" fill="url(#paint8_linear_122_130)" fill-opacity="0.6"/>
<path d="M104.293 633.143H107.374V634.245H99.3874V633.143H102.951V621.464L99.5551 623.48L98.9682 622.544L103.161 619.967H104.293V633.143Z" fill="url(#paint9_linear_122_130)" fill-opacity="0.6"/>
<path d="M103.035 643.511C104.53 643.511 105.662 644.141 106.431 645.402C107.213 646.649 107.605 648.464 107.605 650.847C107.605 653.23 107.213 655.052 106.431 656.312C105.662 657.573 104.53 658.204 103.035 658.204C101.554 658.204 100.422 657.573 99.639 656.312C98.8564 655.052 98.4651 653.23 98.4651 650.847C98.4651 648.478 98.8564 646.663 99.639 645.402C100.422 644.141 101.554 643.511 103.035 643.511ZM99.9534 650.847C99.9534 652.537 100.107 653.86 100.415 654.816L105.068 645.61C104.579 644.958 103.901 644.633 103.035 644.633C102.071 644.633 101.316 645.145 100.771 646.171C100.226 647.182 99.9534 648.741 99.9534 650.847ZM103.035 657.061C104.013 657.061 104.775 656.555 105.32 655.543C105.865 654.518 106.137 652.953 106.137 650.847C106.137 649.059 105.963 647.674 105.613 646.69L100.96 655.98C101.463 656.7 102.154 657.061 103.035 657.061Z" fill="url(#paint10_linear_122_130)" fill-opacity="0.6"/>
<path d="M104.293 680.645H107.374V681.747H99.3874V680.645H102.951V668.966L99.5551 670.982L98.9682 670.046L103.161 667.469H104.293V680.645Z" fill="url(#paint11_linear_122_130)" fill-opacity="0.6"/>
<path d="M104.293 704.396H107.374V705.498H99.3874V704.396H102.951V692.717L99.5551 694.733L98.9682 693.798L103.161 691.221H104.293V704.396Z" fill="url(#paint12_linear_122_130)" fill-opacity="0.6"/>
<path d="M141.965 453.502C143.46 453.502 144.592 454.133 145.361 455.393C146.144 456.64 146.535 458.455 146.535 460.838C146.535 463.221 146.144 465.043 145.361 466.304C144.592 467.565 143.46 468.195 141.965 468.195C140.484 468.195 139.352 467.565 138.569 466.304C137.787 465.043 137.395 463.221 137.395 460.838C137.395 458.469 137.787 456.654 138.569 455.393C139.352 454.133 140.484 453.502 141.965 453.502ZM138.884 460.838C138.884 462.529 139.037 463.852 139.345 464.808L143.998 455.601C143.509 454.95 142.832 454.624 141.965 454.624C141.001 454.624 140.246 455.137 139.701 456.162C139.156 457.174 138.884 458.732 138.884 460.838ZM141.965 467.052C142.943 467.052 143.705 466.546 144.25 465.535C144.795 464.51 145.068 462.944 145.068 460.838C145.068 459.051 144.893 457.665 144.543 456.682L139.89 465.971C140.393 466.692 141.085 467.052 141.965 467.052Z" fill="url(#paint13_linear_122_130)" fill-opacity="0.6"/>
<path d="M143.223 490.637H146.304V491.738H138.318V490.637H141.881V478.957L138.485 480.973L137.898 480.038L142.091 477.461H143.223V490.637Z" fill="url(#paint14_linear_122_130)" fill-opacity="0.6"/>
<path d="M141.965 501.004C143.46 501.004 144.592 501.635 145.361 502.895C146.144 504.142 146.535 505.957 146.535 508.34C146.535 510.723 146.144 512.545 145.361 513.806C144.592 515.067 143.46 515.697 141.965 515.697C140.484 515.697 139.352 515.067 138.569 513.806C137.787 512.545 137.395 510.723 137.395 508.34C137.395 505.971 137.787 504.156 138.569 502.895C139.352 501.635 140.484 501.004 141.965 501.004ZM138.884 508.34C138.884 510.031 139.037 511.354 139.345 512.31L143.998 503.103C143.509 502.452 142.832 502.126 141.965 502.126C141.001 502.126 140.246 502.639 139.701 503.664C139.156 504.676 138.884 506.234 138.884 508.34ZM141.965 514.554C142.943 514.554 143.705 514.049 144.25 513.037C144.795 512.012 145.068 510.446 145.068 508.34C145.068 506.553 144.893 505.168 144.543 504.184L139.89 513.474C140.393 514.194 141.085 514.554 141.965 514.554Z" fill="url(#paint15_linear_122_130)" fill-opacity="0.6"/>
<path d="M141.965 524.755C143.46 524.755 144.592 525.386 145.361 526.646C146.144 527.893 146.535 529.708 146.535 532.091C146.535 534.474 146.144 536.296 145.361 537.557C144.592 538.818 143.46 539.448 141.965 539.448C140.484 539.448 139.352 538.818 138.569 537.557C137.787 536.296 137.395 534.474 137.395 532.091C137.395 529.722 137.787 527.907 138.569 526.646C139.352 525.386 140.484 524.755 141.965 524.755ZM138.884 532.091C138.884 533.782 139.037 535.105 139.345 536.061L143.998 526.854C143.509 526.203 142.832 525.878 141.965 525.878C141.001 525.878 140.246 526.39 139.701 527.415C139.156 528.427 138.884 529.985 138.884 532.091ZM141.965 538.305C142.943 538.305 143.705 537.8 144.25 536.788C144.795 535.763 145.068 534.197 145.068 532.091C145.068 530.304 144.893 528.919 144.543 527.935L139.89 537.225C140.393 537.945 141.085 538.305 141.965 538.305Z" fill="url(#paint16_linear_122_130)" fill-opacity="0.6"/>
<path d="M143.223 561.89H146.304V562.992H138.318V561.89H141.881V550.21L138.485 552.226L137.898 551.291L142.091 548.714H143.223V561.89Z" fill="url(#paint17_linear_122_130)" fill-opacity="0.6"/>
<path d="M141.965 572.257C143.46 572.257 144.592 572.888 145.361 574.149C146.144 575.396 146.535 577.211 146.535 579.594C146.535 581.977 146.144 583.798 145.361 585.059C144.592 586.32 143.46 586.95 141.965 586.95C140.484 586.95 139.352 586.32 138.569 585.059C137.787 583.798 137.395 581.977 137.395 579.594C137.395 577.224 137.787 575.409 138.569 574.149C139.352 572.888 140.484 572.257 141.965 572.257ZM138.884 579.594C138.884 581.284 139.037 582.607 139.345 583.563L143.998 574.356C143.509 573.705 142.832 573.38 141.965 573.38C141.001 573.38 140.246 573.892 139.701 574.918C139.156 575.929 138.884 577.488 138.884 579.594ZM141.965 585.807C142.943 585.807 143.705 585.302 144.25 584.29C144.795 583.265 145.068 581.699 145.068 579.594C145.068 577.806 144.893 576.421 144.543 575.437L139.89 584.727C140.393 585.447 141.085 585.807 141.965 585.807Z" fill="url(#paint18_linear_122_130)" fill-opacity="0.6"/>
<path d="M143.223 609.392H146.304V610.494H138.318V609.392H141.881V597.713L138.485 599.728L137.898 598.793L142.091 596.216H143.223V609.392Z" fill="url(#paint19_linear_122_130)" fill-opacity="0.6"/>
<path d="M141.965 619.76C143.46 619.76 144.592 620.39 145.361 621.651C146.144 622.898 146.535 624.713 146.535 627.096C146.535 629.479 146.144 631.301 145.361 632.561C144.592 633.822 143.46 634.453 141.965 634.453C140.484 634.453 139.352 633.822 138.569 632.561C137.787 631.301 137.395 629.479 137.395 627.096C137.395 624.726 137.787 622.911 138.569 621.651C139.352 620.39 140.484 619.76 141.965 619.76ZM138.884 627.096C138.884 628.786 139.037 630.109 139.345 631.065L143.998 621.859C143.509 621.207 142.832 620.882 141.965 620.882C141.001 620.882 140.246 621.394 139.701 622.42C139.156 623.431 138.884 624.99 138.884 627.096ZM141.965 633.31C142.943 633.31 143.705 632.804 144.25 631.792C144.795 630.767 145.068 629.202 145.068 627.096C145.068 625.308 144.893 623.923 144.543 622.939L139.89 632.229C140.393 632.949 141.085 633.31 141.965 633.31Z" fill="url(#paint20_linear_122_130)" fill-opacity="0.6"/>
<path d="M141.965 643.511C143.46 643.511 144.592 644.141 145.361 645.402C146.144 646.649 146.535 648.464 146.535 650.847C146.535 653.23 146.144 655.052 145.361 656.312C144.592 657.573 143.46 658.204 141.965 658.204C140.484 658.204 139.352 657.573 138.569 656.312C137.787 655.052 137.395 653.23 137.395 650.847C137.395 648.478 137.787 646.663 138.569 645.402C139.352 644.141 140.484 643.511 141.965 643.511ZM138.884 650.847C138.884 652.537 139.037 653.86 139.345 654.816L143.998 645.61C143.509 644.958 142.832 644.633 141.965 644.633C141.001 644.633 140.246 645.145 139.701 646.171C139.156 647.182 138.884 648.741 138.884 650.847ZM141.965 657.061C142.943 657.061 143.705 656.555 144.25 655.543C144.795 654.518 145.068 652.953 145.068 650.847C145.068 649.059 144.893 647.674 144.543 646.69L139.89 655.98C140.393 656.7 141.085 657.061 141.965 657.061Z" fill="url(#paint21_linear_122_130)" fill-opacity="0.6"/>
<path d="M143.223 680.645H146.304V681.747H138.318V680.645H141.881V668.966L138.485 670.982L137.898 670.046L142.091 667.469H143.223V680.645Z" fill="url(#paint22_linear_122_130)" fill-opacity="0.6"/>
<path d="M141.965 691.013C143.46 691.013 144.592 691.643 145.361 692.904C146.144 694.151 146.535 695.966 146.535 698.349C146.535 700.732 146.144 702.554 145.361 703.815C144.592 705.075 143.46 705.706 141.965 705.706C140.484 705.706 139.352 705.075 138.569 703.815C137.787 702.554 137.395 700.732 137.395 698.349C137.395 695.98 137.787 694.165 138.569 692.904C139.352 691.643 140.484 691.013 141.965 691.013ZM138.884 698.349C138.884 700.039 139.037 701.362 139.345 702.318L143.998 693.112C143.509 692.461 142.832 692.135 141.965 692.135C141.001 692.135 140.246 692.648 139.701 693.673C139.156 694.684 138.884 696.243 138.884 698.349ZM141.965 704.563C142.943 704.563 143.705 704.057 144.25 703.046C144.795 702.02 145.068 700.455 145.068 698.349C145.068 696.562 144.893 695.176 144.543 694.192L139.89 703.482C140.393 704.202 141.085 704.563 141.965 704.563Z" fill="url(#paint23_linear_122_130)" fill-opacity="0.6"/>
<path d="M143.223 728.147H146.304V729.249H138.318V728.147H141.881V716.468L138.485 718.484L137.898 717.549L142.091 714.972H143.223V728.147Z" fill="url(#paint24_linear_122_130)" fill-opacity="0.6"/>
<path d="M143.223 751.899H146.304V753H138.318V751.899H141.881V740.219L138.485 742.235L137.898 741.3L142.091 738.723H143.223V751.899Z" fill="url(#paint25_linear_122_130)" fill-opacity="0.6"/>
<path d="M83.5698 477.253C85.0651 477.253 86.1971 477.884 86.9657 479.144C87.7483 480.391 88.1396 482.206 88.1396 484.589C88.1396 486.972 87.7483 488.794 86.9657 490.055C86.1971 491.316 85.0651 491.946 83.5698 491.946C82.0885 491.946 80.9565 491.316 80.1739 490.055C79.3913 488.794 79 486.972 79 484.589C79 482.22 79.3913 480.405 80.1739 479.144C80.9565 477.884 82.0885 477.253 83.5698 477.253ZM80.4883 484.589C80.4883 486.28 80.6421 487.603 80.9495 488.559L85.6032 479.352C85.114 478.701 84.4363 478.375 83.5698 478.375C82.6055 478.375 81.8509 478.888 81.3059 479.913C80.7608 480.925 80.4883 482.483 80.4883 484.589ZM83.5698 490.803C84.5481 490.803 85.3097 490.297 85.8547 489.286C86.3997 488.261 86.6722 486.695 86.6722 484.589C86.6722 482.802 86.4976 481.417 86.1482 480.433L81.4945 489.722C81.9976 490.443 82.6894 490.803 83.5698 490.803Z" fill="url(#paint26_linear_122_130)" fill-opacity="0.6"/>
<path d="M83.5698 501.004C85.0651 501.004 86.1971 501.635 86.9657 502.895C87.7483 504.142 88.1396 505.957 88.1396 508.34C88.1396 510.723 87.7483 512.545 86.9657 513.806C86.1971 515.067 85.0651 515.697 83.5698 515.697C82.0885 515.697 80.9565 515.067 80.1739 513.806C79.3913 512.545 79 510.723 79 508.34C79 505.971 79.3913 504.156 80.1739 502.895C80.9565 501.635 82.0885 501.004 83.5698 501.004ZM80.4883 508.34C80.4883 510.031 80.6421 511.354 80.9495 512.31L85.6032 503.103C85.114 502.452 84.4363 502.126 83.5698 502.126C82.6055 502.126 81.8509 502.639 81.3059 503.664C80.7608 504.676 80.4883 506.234 80.4883 508.34ZM83.5698 514.554C84.5481 514.554 85.3097 514.049 85.8547 513.037C86.3997 512.012 86.6722 510.446 86.6722 508.34C86.6722 506.553 86.4976 505.168 86.1482 504.184L81.4945 513.474C81.9976 514.194 82.6894 514.554 83.5698 514.554Z" fill="url(#paint27_linear_122_130)" fill-opacity="0.6"/>
<path d="M84.8276 538.139H87.909V539.24H79.9223V538.139H83.486V526.459L80.09 528.475L79.5031 527.54L83.6956 524.963H84.8276V538.139Z" fill="url(#paint28_linear_122_130)" fill-opacity="0.6"/>
<path d="M83.5698 548.506C85.0651 548.506 86.1971 549.137 86.9657 550.398C87.7483 551.644 88.1396 553.459 88.1396 555.842C88.1396 558.225 87.7483 560.047 86.9657 561.308C86.1971 562.569 85.0651 563.199 83.5698 563.199C82.0885 563.199 80.9565 562.569 80.1739 561.308C79.3913 560.047 79 558.225 79 555.842C79 553.473 79.3913 551.658 80.1739 550.398C80.9565 549.137 82.0885 548.506 83.5698 548.506ZM80.4883 555.842C80.4883 557.533 80.6421 558.856 80.9495 559.812L85.6032 550.605C85.114 549.954 84.4363 549.629 83.5698 549.629C82.6055 549.629 81.8509 550.141 81.3059 551.166C80.7608 552.178 80.4883 553.737 80.4883 555.842ZM83.5698 562.056C84.5481 562.056 85.3097 561.551 85.8547 560.539C86.3997 559.514 86.6722 557.948 86.6722 555.842C86.6722 554.055 86.4976 552.67 86.1482 551.686L81.4945 560.976C81.9976 561.696 82.6894 562.056 83.5698 562.056Z" fill="url(#paint29_linear_122_130)" fill-opacity="0.6"/>
<path d="M84.8276 585.641H87.909V586.743H79.9223V585.641H83.486V573.962L80.09 575.977L79.5031 575.042L83.6956 572.465H84.8276V585.641Z" fill="url(#paint30_linear_122_130)" fill-opacity="0.6"/>
<path d="M84.8276 609.392H87.909V610.494H79.9223V609.392H83.486V597.713L80.09 599.728L79.5031 598.793L83.6956 596.216H84.8276V609.392Z" fill="url(#paint31_linear_122_130)" fill-opacity="0.6"/>
<path d="M123.758 443.135H126.839V444.236H118.853V443.135H122.416V431.455L119.02 433.471L118.433 432.536L122.626 429.959H123.758V443.135Z" fill="url(#paint32_linear_122_130)" fill-opacity="0.6"/>
<path d="M122.5 453.502C123.995 453.502 125.127 454.133 125.896 455.393C126.679 456.64 127.07 458.455 127.07 460.838C127.07 463.221 126.679 465.043 125.896 466.304C125.127 467.565 123.995 468.195 122.5 468.195C121.019 468.195 119.887 467.565 119.104 466.304C118.321 465.043 117.93 463.221 117.93 460.838C117.93 458.469 118.321 456.654 119.104 455.393C119.887 454.133 121.019 453.502 122.5 453.502ZM119.419 460.838C119.419 462.529 119.572 463.852 119.88 464.808L124.533 455.601C124.044 454.95 123.366 454.624 122.5 454.624C121.536 454.624 120.781 455.137 120.236 456.162C119.691 457.174 119.419 458.732 119.419 460.838ZM122.5 467.052C123.478 467.052 124.24 466.546 124.785 465.535C125.33 464.51 125.602 462.944 125.602 460.838C125.602 459.051 125.428 457.665 125.078 456.682L120.425 465.971C120.928 466.692 121.62 467.052 122.5 467.052Z" fill="url(#paint33_linear_122_130)" fill-opacity="0.6"/>
<path d="M123.758 490.637H126.839V491.738H118.853V490.637H122.416V478.957L119.02 480.973L118.433 480.038L122.626 477.461H123.758V490.637Z" fill="url(#paint34_linear_122_130)" fill-opacity="0.6"/>
<path d="M123.758 514.388H126.839V515.489H118.853V514.388H122.416V502.708L119.02 504.724L118.433 503.789L122.626 501.212H123.758V514.388Z" fill="url(#paint35_linear_122_130)" fill-opacity="0.6"/>
<path d="M122.5 524.755C123.995 524.755 125.127 525.386 125.896 526.646C126.679 527.893 127.07 529.708 127.07 532.091C127.07 534.474 126.679 536.296 125.896 537.557C125.127 538.818 123.995 539.448 122.5 539.448C121.019 539.448 119.887 538.818 119.104 537.557C118.321 536.296 117.93 534.474 117.93 532.091C117.93 529.722 118.321 527.907 119.104 526.646C119.887 525.386 121.019 524.755 122.5 524.755ZM119.419 532.091C119.419 533.782 119.572 535.105 119.88 536.061L124.533 526.854C124.044 526.203 123.366 525.878 122.5 525.878C121.536 525.878 120.781 526.39 120.236 527.415C119.691 528.427 119.419 529.985 119.419 532.091ZM122.5 538.305C123.478 538.305 124.24 537.8 124.785 536.788C125.33 535.763 125.602 534.197 125.602 532.091C125.602 530.304 125.428 528.919 125.078 527.935L120.425 537.225C120.928 537.945 121.62 538.305 122.5 538.305Z" fill="url(#paint36_linear_122_130)" fill-opacity="0.6"/>
<path d="M123.758 561.89H126.839V562.992H118.853V561.89H122.416V550.21L119.02 552.226L118.433 551.291L122.626 548.714H123.758V561.89Z" fill="url(#paint37_linear_122_130)" fill-opacity="0.6"/>
<path d="M123.758 585.641H126.839V586.743H118.853V585.641H122.416V573.962L119.02 575.977L118.433 575.042L122.626 572.465H123.758V585.641Z" fill="url(#paint38_linear_122_130)" fill-opacity="0.6"/>
<path d="M122.5 596.008C123.995 596.008 125.127 596.639 125.896 597.9C126.679 599.147 127.07 600.962 127.07 603.345C127.07 605.728 126.679 607.549 125.896 608.81C125.127 610.071 123.995 610.701 122.5 610.701C121.019 610.701 119.887 610.071 119.104 608.81C118.321 607.549 117.93 605.728 117.93 603.345C117.93 600.975 118.321 599.16 119.104 597.9C119.887 596.639 121.019 596.008 122.5 596.008ZM119.419 603.345C119.419 605.035 119.572 606.358 119.88 607.314L124.533 598.107C124.044 597.456 123.366 597.131 122.5 597.131C121.536 597.131 120.781 597.643 120.236 598.669C119.691 599.68 119.419 601.239 119.419 603.345ZM122.5 609.558C123.478 609.558 124.24 609.053 124.785 608.041C125.33 607.016 125.602 605.451 125.602 603.345C125.602 601.557 125.428 600.172 125.078 599.188L120.425 608.478C120.928 609.198 121.62 609.558 122.5 609.558Z" fill="url(#paint39_linear_122_130)" fill-opacity="0.6"/>
<path d="M123.758 633.143H126.839V634.245H118.853V633.143H122.416V621.464L119.02 623.48L118.433 622.544L122.626 619.967H123.758V633.143Z" fill="url(#paint40_linear_122_130)" fill-opacity="0.6"/>
<path d="M122.5 643.511C123.995 643.511 125.127 644.141 125.896 645.402C126.679 646.649 127.07 648.464 127.07 650.847C127.07 653.23 126.679 655.052 125.896 656.312C125.127 657.573 123.995 658.204 122.5 658.204C121.019 658.204 119.887 657.573 119.104 656.312C118.321 655.052 117.93 653.23 117.93 650.847C117.93 648.478 118.321 646.663 119.104 645.402C119.887 644.141 121.019 643.511 122.5 643.511ZM119.419 650.847C119.419 652.537 119.572 653.86 119.88 654.816L124.533 645.61C124.044 644.958 123.366 644.633 122.5 644.633C121.536 644.633 120.781 645.145 120.236 646.171C119.691 647.182 119.419 648.741 119.419 650.847ZM122.5 657.061C123.478 657.061 124.24 656.555 124.785 655.543C125.33 654.518 125.602 652.953 125.602 650.847C125.602 649.059 125.428 647.674 125.078 646.69L120.425 655.98C120.928 656.7 121.62 657.061 122.5 657.061Z" fill="url(#paint41_linear_122_130)" fill-opacity="0.6"/>
<path d="M161.43 429.751C162.926 429.751 164.057 430.381 164.826 431.642C165.609 432.889 166 434.704 166 437.087C166 439.47 165.609 441.292 164.826 442.553C164.057 443.814 162.926 444.444 161.43 444.444C159.949 444.444 158.817 443.814 158.034 442.553C157.252 441.292 156.86 439.47 156.86 437.087C156.86 434.718 157.252 432.903 158.034 431.642C158.817 430.381 159.949 429.751 161.43 429.751ZM158.349 437.087C158.349 438.777 158.502 440.101 158.81 441.057L163.464 431.85C162.974 431.199 162.297 430.873 161.43 430.873C160.466 430.873 159.711 431.386 159.166 432.411C158.621 433.423 158.349 434.981 158.349 437.087ZM161.43 443.301C162.408 443.301 163.17 442.795 163.715 441.784C164.26 440.759 164.533 439.193 164.533 437.087C164.533 435.3 164.358 433.914 164.009 432.931L159.355 442.22C159.858 442.941 160.55 443.301 161.43 443.301Z" fill="url(#paint42_linear_122_130)" fill-opacity="0.6"/>
<path d="M162.688 466.886H165.769V467.987H157.783V466.886H161.346V455.206L157.95 457.222L157.363 456.287L161.556 453.71H162.688V466.886Z" fill="url(#paint43_linear_122_130)" fill-opacity="0.6"/>
<path d="M162.688 490.637H165.769V491.738H157.783V490.637H161.346V478.957L157.95 480.973L157.363 480.038L161.556 477.461H162.688V490.637Z" fill="url(#paint44_linear_122_130)" fill-opacity="0.6"/>
<path d="M161.43 501.004C162.926 501.004 164.057 501.635 164.826 502.895C165.609 504.142 166 505.957 166 508.34C166 510.723 165.609 512.545 164.826 513.806C164.057 515.067 162.926 515.697 161.43 515.697C159.949 515.697 158.817 515.067 158.034 513.806C157.252 512.545 156.86 510.723 156.86 508.34C156.86 505.971 157.252 504.156 158.034 502.895C158.817 501.635 159.949 501.004 161.43 501.004ZM158.349 508.34C158.349 510.031 158.502 511.354 158.81 512.31L163.464 503.103C162.974 502.452 162.297 502.126 161.43 502.126C160.466 502.126 159.711 502.639 159.166 503.664C158.621 504.676 158.349 506.234 158.349 508.34ZM161.43 514.554C162.408 514.554 163.17 514.049 163.715 513.037C164.26 512.012 164.533 510.446 164.533 508.34C164.533 506.553 164.358 505.168 164.009 504.184L159.355 513.474C159.858 514.194 160.55 514.554 161.43 514.554Z" fill="url(#paint45_linear_122_130)" fill-opacity="0.6"/>
<path d="M161.43 524.755C162.926 524.755 164.057 525.386 164.826 526.646C165.609 527.893 166 529.708 166 532.091C166 534.474 165.609 536.296 164.826 537.557C164.057 538.818 162.926 539.448 161.43 539.448C159.949 539.448 158.817 538.818 158.034 537.557C157.252 536.296 156.86 534.474 156.86 532.091C156.86 529.722 157.252 527.907 158.034 526.646C158.817 525.386 159.949 524.755 161.43 524.755ZM158.349 532.091C158.349 533.782 158.502 535.105 158.81 536.061L163.464 526.854C162.974 526.203 162.297 525.878 161.43 525.878C160.466 525.878 159.711 526.39 159.166 527.415C158.621 528.427 158.349 529.985 158.349 532.091ZM161.43 538.305C162.408 538.305 163.17 537.8 163.715 536.788C164.26 535.763 164.533 534.197 164.533 532.091C164.533 530.304 164.358 528.919 164.009 527.935L159.355 537.225C159.858 537.945 160.55 538.305 161.43 538.305Z" fill="url(#paint46_linear_122_130)" fill-opacity="0.6"/>
<g opacity="0.6">
<path d="M989.93 106C991.356 106 992.436 106.605 993.17 107.815C993.916 109.011 994.29 110.753 994.29 113.04C994.29 115.327 993.916 117.075 993.17 118.285C992.436 119.495 991.356 120.1 989.93 120.1C988.517 120.1 987.437 119.495 986.69 118.285C985.943 117.075 985.57 115.327 985.57 113.04C985.57 110.767 985.943 109.025 986.69 107.815C987.437 106.605 988.517 106 989.93 106ZM986.99 113.04C986.99 114.662 987.137 115.932 987.43 116.849L991.87 108.014C991.403 107.389 990.756 107.077 989.93 107.077C989.01 107.077 988.29 107.569 987.77 108.553C987.25 109.523 986.99 111.019 986.99 113.04ZM989.93 119.003C990.863 119.003 991.59 118.518 992.11 117.547C992.63 116.564 992.89 115.061 992.89 113.04C992.89 111.325 992.723 109.995 992.39 109.051L987.95 117.966C988.43 118.658 989.09 119.003 989.93 119.003Z" fill="url(#paint47_linear_122_130)"/>
<path d="M991.13 141.637H994.07V142.694H986.45V141.637H989.85V130.428L986.61 132.363L986.05 131.465L990.05 128.992H991.13V141.637Z" fill="url(#paint48_linear_122_130)"/>
<path d="M989.93 151.586C991.356 151.586 992.436 152.191 993.17 153.4C993.916 154.597 994.29 156.339 994.29 158.626C994.29 160.913 993.916 162.661 993.17 163.871C992.436 165.081 991.356 165.686 989.93 165.686C988.517 165.686 987.437 165.081 986.69 163.871C985.943 162.661 985.57 160.913 985.57 158.626C985.57 156.352 985.943 154.61 986.69 153.4C987.437 152.191 988.517 151.586 989.93 151.586ZM986.99 158.626C986.99 160.248 987.137 161.518 987.43 162.435L991.87 153.6C991.403 152.975 990.756 152.663 989.93 152.663C989.01 152.663 988.29 153.155 987.77 154.138C987.25 155.109 986.99 156.605 986.99 158.626ZM989.93 164.589C990.863 164.589 991.59 164.104 992.11 163.133C992.63 162.149 992.89 160.647 992.89 158.626C992.89 156.911 992.723 155.581 992.39 154.637L987.95 163.552C988.43 164.243 989.09 164.589 989.93 164.589Z" fill="url(#paint49_linear_122_130)"/>
<path d="M991.13 187.222H994.07V188.279H986.45V187.222H989.85V176.014L986.61 177.948L986.05 177.051L990.05 174.578H991.13V187.222Z" fill="url(#paint50_linear_122_130)"/>
<path d="M991.13 210.015H994.07V211.072H986.45V210.015H989.85V198.807L986.61 200.741L986.05 199.844L990.05 197.371H991.13V210.015Z" fill="url(#paint51_linear_122_130)"/>
<path d="M989.93 219.964C991.356 219.964 992.436 220.569 993.17 221.779C993.916 222.976 994.29 224.717 994.29 227.004C994.29 229.291 993.916 231.039 993.17 232.249C992.436 233.459 991.356 234.064 989.93 234.064C988.517 234.064 987.437 233.459 986.69 232.249C985.943 231.039 985.57 229.291 985.57 227.004C985.57 224.731 985.943 222.989 986.69 221.779C987.437 220.569 988.517 219.964 989.93 219.964ZM986.99 227.004C986.99 228.626 987.137 229.896 987.43 230.813L991.87 221.978C991.403 221.353 990.756 221.041 989.93 221.041C989.01 221.041 988.29 221.533 987.77 222.517C987.25 223.487 986.99 224.983 986.99 227.004ZM989.93 232.967C990.863 232.967 991.59 232.482 992.11 231.511C992.63 230.528 992.89 229.025 992.89 227.004C992.89 225.289 992.723 223.959 992.39 223.015L987.95 231.93C988.43 232.622 989.09 232.967 989.93 232.967Z" fill="url(#paint52_linear_122_130)"/>
<path d="M991.13 255.601H994.07V256.658H986.45V255.601H989.85V244.392L986.61 246.327L986.05 245.429L990.05 242.956H991.13V255.601Z" fill="url(#paint53_linear_122_130)"/>
<path d="M989.93 265.55C991.356 265.55 992.436 266.155 993.17 267.365C993.916 268.561 994.29 270.303 994.29 272.59C994.29 274.877 993.916 276.625 993.17 277.835C992.436 279.045 991.356 279.65 989.93 279.65C988.517 279.65 987.437 279.045 986.69 277.835C985.943 276.625 985.57 274.877 985.57 272.59C985.57 270.316 985.943 268.574 986.69 267.365C987.437 266.155 988.517 265.55 989.93 265.55ZM986.99 272.59C986.99 274.212 987.137 275.482 987.43 276.399L991.87 267.564C991.403 266.939 990.756 266.627 989.93 266.627C989.01 266.627 988.29 267.119 987.77 268.102C987.25 269.073 986.99 270.569 986.99 272.59ZM989.93 278.553C990.863 278.553 991.59 278.068 992.11 277.097C992.63 276.113 992.89 274.611 992.89 272.59C992.89 270.875 992.723 269.545 992.39 268.601L987.95 277.516C988.43 278.207 989.09 278.553 989.93 278.553Z" fill="url(#paint54_linear_122_130)"/>
<path d="M989.93 288.342C991.356 288.342 992.436 288.947 993.17 290.157C993.916 291.354 994.29 293.096 994.29 295.383C994.29 297.669 993.916 299.418 993.17 300.628C992.436 301.838 991.356 302.443 989.93 302.443C988.517 302.443 987.437 301.838 986.69 300.628C985.943 299.418 985.57 297.669 985.57 295.383C985.57 293.109 985.943 291.367 986.69 290.157C987.437 288.947 988.517 288.342 989.93 288.342ZM986.99 295.383C986.99 297.005 987.137 298.274 987.43 299.192L991.87 290.357C991.403 289.732 990.756 289.419 989.93 289.419C989.01 289.419 988.29 289.911 987.77 290.895C987.25 291.866 986.99 293.362 986.99 295.383ZM989.93 301.346C990.863 301.346 991.59 300.86 992.11 299.89C992.63 298.906 992.89 297.404 992.89 295.383C992.89 293.667 992.723 292.338 992.39 291.394L987.95 300.309C988.43 301 989.09 301.346 989.93 301.346Z" fill="url(#paint55_linear_122_130)"/>
<path d="M991.13 323.979H994.07V325.036H986.45V323.979H989.85V312.771L986.61 314.705L986.05 313.808L990.05 311.335H991.13V323.979Z" fill="url(#paint56_linear_122_130)"/>
<path d="M989.93 333.928C991.356 333.928 992.436 334.533 993.17 335.743C993.916 336.94 994.29 338.681 994.29 340.968C994.29 343.255 993.916 345.003 993.17 346.213C992.436 347.423 991.356 348.028 989.93 348.028C988.517 348.028 987.437 347.423 986.69 346.213C985.943 345.003 985.57 343.255 985.57 340.968C985.57 338.695 985.943 336.953 986.69 335.743C987.437 334.533 988.517 333.928 989.93 333.928ZM986.99 340.968C986.99 342.59 987.137 343.86 987.43 344.777L991.87 335.942C991.403 335.317 990.756 335.005 989.93 335.005C989.01 335.005 988.29 335.497 987.77 336.481C987.25 337.451 986.99 338.947 986.99 340.968ZM989.93 346.931C990.863 346.931 991.59 346.446 992.11 345.475C992.63 344.492 992.89 342.989 992.89 340.968C992.89 339.253 992.723 337.923 992.39 336.979L987.95 345.894C988.43 346.586 989.09 346.931 989.93 346.931Z" fill="url(#paint57_linear_122_130)"/>
<path d="M991.13 369.565H994.07V370.622H986.45V369.565H989.85V358.356L986.61 360.291L986.05 359.393L990.05 356.92H991.13V369.565Z" fill="url(#paint58_linear_122_130)"/>
<path d="M991.13 392.357H994.07V393.414H986.45V392.357H989.85V381.149L986.61 383.084L986.05 382.186L990.05 379.713H991.13V392.357Z" fill="url(#paint59_linear_122_130)"/>
<path d="M1027.07 151.586C1028.5 151.586 1029.58 152.191 1030.31 153.4C1031.06 154.597 1031.43 156.339 1031.43 158.626C1031.43 160.913 1031.06 162.661 1030.31 163.871C1029.58 165.081 1028.5 165.686 1027.07 165.686C1025.66 165.686 1024.58 165.081 1023.83 163.871C1023.08 162.661 1022.71 160.913 1022.71 158.626C1022.71 156.352 1023.08 154.61 1023.83 153.4C1024.58 152.191 1025.66 151.586 1027.07 151.586ZM1024.13 158.626C1024.13 160.248 1024.28 161.518 1024.57 162.435L1029.01 153.6C1028.54 152.975 1027.9 152.663 1027.07 152.663C1026.15 152.663 1025.43 153.155 1024.91 154.138C1024.39 155.109 1024.13 156.605 1024.13 158.626ZM1027.07 164.589C1028 164.589 1028.73 164.104 1029.25 163.133C1029.77 162.149 1030.03 160.647 1030.03 158.626C1030.03 156.911 1029.86 155.581 1029.53 154.637L1025.09 163.552C1025.57 164.243 1026.23 164.589 1027.07 164.589Z" fill="url(#paint60_linear_122_130)"/>
<path d="M1028.27 187.222H1031.21V188.279H1023.59V187.222H1026.99V176.014L1023.75 177.948L1023.19 177.051L1027.19 174.578H1028.27V187.222Z" fill="url(#paint61_linear_122_130)"/>
<path d="M1027.07 197.171C1028.5 197.171 1029.58 197.776 1030.31 198.986C1031.06 200.183 1031.43 201.924 1031.43 204.211C1031.43 206.498 1031.06 208.247 1030.31 209.457C1029.58 210.666 1028.5 211.271 1027.07 211.271C1025.66 211.271 1024.58 210.666 1023.83 209.457C1023.08 208.247 1022.71 206.498 1022.71 204.211C1022.71 201.938 1023.08 200.196 1023.83 198.986C1024.58 197.776 1025.66 197.171 1027.07 197.171ZM1024.13 204.211C1024.13 205.833 1024.28 207.103 1024.57 208.021L1029.01 199.186C1028.54 198.561 1027.9 198.248 1027.07 198.248C1026.15 198.248 1025.43 198.74 1024.91 199.724C1024.39 200.695 1024.13 202.19 1024.13 204.211ZM1027.07 210.174C1028 210.174 1028.73 209.689 1029.25 208.719C1029.77 207.735 1030.03 206.232 1030.03 204.211C1030.03 202.496 1029.86 201.167 1029.53 200.223L1025.09 209.137C1025.57 209.829 1026.23 210.174 1027.07 210.174Z" fill="url(#paint62_linear_122_130)"/>
<path d="M1027.07 219.964C1028.5 219.964 1029.58 220.569 1030.31 221.779C1031.06 222.976 1031.43 224.717 1031.43 227.004C1031.43 229.291 1031.06 231.039 1030.31 232.249C1029.58 233.459 1028.5 234.064 1027.07 234.064C1025.66 234.064 1024.58 233.459 1023.83 232.249C1023.08 231.039 1022.71 229.291 1022.71 227.004C1022.71 224.731 1023.08 222.989 1023.83 221.779C1024.58 220.569 1025.66 219.964 1027.07 219.964ZM1024.13 227.004C1024.13 228.626 1024.28 229.896 1024.57 230.813L1029.01 221.978C1028.54 221.353 1027.9 221.041 1027.07 221.041C1026.15 221.041 1025.43 221.533 1024.91 222.517C1024.39 223.487 1024.13 224.983 1024.13 227.004ZM1027.07 232.967C1028 232.967 1028.73 232.482 1029.25 231.511C1029.77 230.528 1030.03 229.025 1030.03 227.004C1030.03 225.289 1029.86 223.959 1029.53 223.015L1025.09 231.93C1025.57 232.622 1026.23 232.967 1027.07 232.967Z" fill="url(#paint63_linear_122_130)"/>
<path d="M1028.27 255.601H1031.21V256.658H1023.59V255.601H1026.99V244.392L1023.75 246.327L1023.19 245.429L1027.19 242.956H1028.27V255.601Z" fill="url(#paint64_linear_122_130)"/>
<path d="M1027.07 265.55C1028.5 265.55 1029.58 266.155 1030.31 267.365C1031.06 268.561 1031.43 270.303 1031.43 272.59C1031.43 274.877 1031.06 276.625 1030.31 277.835C1029.58 279.045 1028.5 279.65 1027.07 279.65C1025.66 279.65 1024.58 279.045 1023.83 277.835C1023.08 276.625 1022.71 274.877 1022.71 272.59C1022.71 270.316 1023.08 268.574 1023.83 267.365C1024.58 266.155 1025.66 265.55 1027.07 265.55ZM1024.13 272.59C1024.13 274.212 1024.28 275.482 1024.57 276.399L1029.01 267.564C1028.54 266.939 1027.9 266.627 1027.07 266.627C1026.15 266.627 1025.43 267.119 1024.91 268.102C1024.39 269.073 1024.13 270.569 1024.13 272.59ZM1027.07 278.553C1028 278.553 1028.73 278.068 1029.25 277.097C1029.77 276.113 1030.03 274.611 1030.03 272.59C1030.03 270.875 1029.86 269.545 1029.53 268.601L1025.09 277.516C1025.57 278.207 1026.23 278.553 1027.07 278.553Z" fill="url(#paint65_linear_122_130)"/>
<path d="M1028.27 301.186H1031.21V302.243H1023.59V301.186H1026.99V289.978L1023.75 291.912L1023.19 291.015L1027.19 288.542H1028.27V301.186Z" fill="url(#paint66_linear_122_130)"/>
<path d="M1027.07 311.135C1028.5 311.135 1029.58 311.74 1030.31 312.95C1031.06 314.147 1031.43 315.888 1031.43 318.175C1031.43 320.462 1031.06 322.211 1030.31 323.421C1029.58 324.63 1028.5 325.235 1027.07 325.235C1025.66 325.235 1024.58 324.63 1023.83 323.421C1023.08 322.211 1022.71 320.462 1022.71 318.175C1022.71 315.902 1023.08 314.16 1023.83 312.95C1024.58 311.74 1025.66 311.135 1027.07 311.135ZM1024.13 318.175C1024.13 319.797 1024.28 321.067 1024.57 321.985L1029.01 313.15C1028.54 312.525 1027.9 312.212 1027.07 312.212C1026.15 312.212 1025.43 312.704 1024.91 313.688C1024.39 314.659 1024.13 316.154 1024.13 318.175ZM1027.07 324.139C1028 324.139 1028.73 323.653 1029.25 322.683C1029.77 321.699 1030.03 320.196 1030.03 318.175C1030.03 316.46 1029.86 315.131 1029.53 314.187L1025.09 323.101C1025.57 323.793 1026.23 324.139 1027.07 324.139Z" fill="url(#paint67_linear_122_130)"/>
<path d="M1027.07 333.928C1028.5 333.928 1029.58 334.533 1030.31 335.743C1031.06 336.94 1031.43 338.681 1031.43 340.968C1031.43 343.255 1031.06 345.003 1030.31 346.213C1029.58 347.423 1028.5 348.028 1027.07 348.028C1025.66 348.028 1024.58 347.423 1023.83 346.213C1023.08 345.003 1022.71 343.255 1022.71 340.968C1022.71 338.695 1023.08 336.953 1023.83 335.743C1024.58 334.533 1025.66 333.928 1027.07 333.928ZM1024.13 340.968C1024.13 342.59 1024.28 343.86 1024.57 344.777L1029.01 335.942C1028.54 335.317 1027.9 335.005 1027.07 335.005C1026.15 335.005 1025.43 335.497 1024.91 336.481C1024.39 337.451 1024.13 338.947 1024.13 340.968ZM1027.07 346.931C1028 346.931 1028.73 346.446 1029.25 345.475C1029.77 344.492 1030.03 342.989 1030.03 340.968C1030.03 339.253 1029.86 337.923 1029.53 336.979L1025.09 345.894C1025.57 346.586 1026.23 346.931 1027.07 346.931Z" fill="url(#paint68_linear_122_130)"/>
<path d="M1028.27 369.565H1031.21V370.622H1023.59V369.565H1026.99V358.356L1023.75 360.291L1023.19 359.393L1027.19 356.92H1028.27V369.565Z" fill="url(#paint69_linear_122_130)"/>
<path d="M1027.07 379.514C1028.5 379.514 1029.58 380.119 1030.31 381.329C1031.06 382.525 1031.43 384.267 1031.43 386.554C1031.43 388.841 1031.06 390.589 1030.31 391.799C1029.58 393.009 1028.5 393.614 1027.07 393.614C1025.66 393.614 1024.58 393.009 1023.83 391.799C1023.08 390.589 1022.71 388.841 1022.71 386.554C1022.71 384.28 1023.08 382.538 1023.83 381.329C1024.58 380.119 1025.66 379.514 1027.07 379.514ZM1024.13 386.554C1024.13 388.176 1024.28 389.446 1024.57 390.363L1029.01 381.528C1028.54 380.903 1027.9 380.591 1027.07 380.591C1026.15 380.591 1025.43 381.083 1024.91 382.066C1024.39 383.037 1024.13 384.533 1024.13 386.554ZM1027.07 392.517C1028 392.517 1028.73 392.032 1029.25 391.061C1029.77 390.077 1030.03 388.575 1030.03 386.554C1030.03 384.839 1029.86 383.509 1029.53 382.565L1025.09 391.48C1025.57 392.171 1026.23 392.517 1027.07 392.517Z" fill="url(#paint70_linear_122_130)"/>
<path d="M1028.27 415.15H1031.21V416.207H1023.59V415.15H1026.99V403.942L1023.75 405.876L1023.19 404.979L1027.19 402.506H1028.27V415.15Z" fill="url(#paint71_linear_122_130)"/>
<path d="M1028.27 437.943H1031.21V439H1023.59V437.943H1026.99V426.735L1023.75 428.669L1023.19 427.772L1027.19 425.299H1028.27V437.943Z" fill="url(#paint72_linear_122_130)"/>
<path d="M971.36 174.378C972.786 174.378 973.866 174.983 974.599 176.193C975.346 177.39 975.719 179.132 975.719 181.419C975.719 183.705 975.346 185.454 974.599 186.664C973.866 187.874 972.786 188.479 971.36 188.479C969.946 188.479 968.867 187.874 968.12 186.664C967.373 185.454 967 183.705 967 181.419C967 179.145 967.373 177.403 968.12 176.193C968.867 174.983 969.946 174.378 971.36 174.378ZM968.42 181.419C968.42 183.041 968.567 184.31 968.86 185.228L973.3 176.393C972.833 175.768 972.186 175.455 971.36 175.455C970.44 175.455 969.72 175.947 969.2 176.931C968.68 177.902 968.42 179.398 968.42 181.419ZM971.36 187.382C972.293 187.382 973.02 186.896 973.54 185.926C974.06 184.942 974.319 183.439 974.319 181.419C974.319 179.703 974.153 178.374 973.82 177.43L969.38 186.345C969.86 187.036 970.52 187.382 971.36 187.382Z" fill="url(#paint73_linear_122_130)"/>
<path d="M971.36 197.171C972.786 197.171 973.866 197.776 974.599 198.986C975.346 200.183 975.719 201.924 975.719 204.211C975.719 206.498 975.346 208.247 974.599 209.457C973.866 210.666 972.786 211.271 971.36 211.271C969.946 211.271 968.867 210.666 968.12 209.457C967.373 208.247 967 206.498 967 204.211C967 201.938 967.373 200.196 968.12 198.986C968.867 197.776 969.946 197.171 971.36 197.171ZM968.42 204.211C968.42 205.833 968.567 207.103 968.86 208.021L973.3 199.186C972.833 198.561 972.186 198.248 971.36 198.248C970.44 198.248 969.72 198.74 969.2 199.724C968.68 200.695 968.42 202.19 968.42 204.211ZM971.36 210.174C972.293 210.174 973.02 209.689 973.54 208.719C974.06 207.735 974.319 206.232 974.319 204.211C974.319 202.496 974.153 201.167 973.82 200.223L969.38 209.137C969.86 209.829 970.52 210.174 971.36 210.174Z" fill="url(#paint74_linear_122_130)"/>
<path d="M972.56 232.808H975.499V233.865H967.88V232.808H971.28V221.599L968.04 223.534L967.48 222.636L971.48 220.163H972.56V232.808Z" fill="url(#paint75_linear_122_130)"/>
<path d="M971.36 242.757C972.786 242.757 973.866 243.362 974.599 244.572C975.346 245.768 975.719 247.51 975.719 249.797C975.719 252.084 975.346 253.832 974.599 255.042C973.866 256.252 972.786 256.857 971.36 256.857C969.946 256.857 968.867 256.252 968.12 255.042C967.373 253.832 967 252.084 967 249.797C967 247.523 967.373 245.782 968.12 244.572C968.867 243.362 969.946 242.757 971.36 242.757ZM968.42 249.797C968.42 251.419 968.567 252.689 968.86 253.606L973.3 244.771C972.833 244.146 972.186 243.834 971.36 243.834C970.44 243.834 969.72 244.326 969.2 245.31C968.68 246.28 968.42 247.776 968.42 249.797ZM971.36 255.76C972.293 255.76 973.02 255.275 973.54 254.304C974.06 253.32 974.319 251.818 974.319 249.797C974.319 248.082 974.153 246.752 973.82 245.808L969.38 254.723C969.86 255.414 970.52 255.76 971.36 255.76Z" fill="url(#paint76_linear_122_130)"/>
<path d="M972.56 278.393H975.499V279.45H967.88V278.393H971.28V267.185L968.04 269.12L967.48 268.222L971.48 265.749H972.56V278.393Z" fill="url(#paint77_linear_122_130)"/>
<path d="M972.56 301.186H975.499V302.243H967.88V301.186H971.28V289.978L968.04 291.912L967.48 291.015L971.48 288.542H972.56V301.186Z" fill="url(#paint78_linear_122_130)"/>
<path d="M1009.7 141.637H1012.64V142.694H1005.02V141.637H1008.42V130.428L1005.18 132.363L1004.62 131.465L1008.62 128.992H1009.7V141.637Z" fill="url(#paint79_linear_122_130)"/>
<path d="M1008.5 151.586C1009.93 151.586 1011.01 152.191 1011.74 153.4C1012.49 154.597 1012.86 156.339 1012.86 158.626C1012.86 160.913 1012.49 162.661 1011.74 163.871C1011.01 165.081 1009.93 165.686 1008.5 165.686C1007.09 165.686 1006.01 165.081 1005.26 163.871C1004.51 162.661 1004.14 160.913 1004.14 158.626C1004.14 156.352 1004.51 154.61 1005.26 153.4C1006.01 152.191 1007.09 151.586 1008.5 151.586ZM1005.56 158.626C1005.56 160.248 1005.71 161.518 1006 162.435L1010.44 153.6C1009.97 152.975 1009.33 152.663 1008.5 152.663C1007.58 152.663 1006.86 153.155 1006.34 154.138C1005.82 155.109 1005.56 156.605 1005.56 158.626ZM1008.5 164.589C1009.43 164.589 1010.16 164.104 1010.68 163.133C1011.2 162.149 1011.46 160.647 1011.46 158.626C1011.46 156.911 1011.29 155.581 1010.96 154.637L1006.52 163.552C1007 164.243 1007.66 164.589 1008.5 164.589Z" fill="url(#paint80_linear_122_130)"/>
<path d="M1009.7 187.222H1012.64V188.279H1005.02V187.222H1008.42V176.014L1005.18 177.948L1004.62 177.051L1008.62 174.578H1009.7V187.222Z" fill="url(#paint81_linear_122_130)"/>
<path d="M1009.7 210.015H1012.64V211.072H1005.02V210.015H1008.42V198.807L1005.18 200.741L1004.62 199.844L1008.62 197.371H1009.7V210.015Z" fill="url(#paint82_linear_122_130)"/>
<path d="M1008.5 219.964C1009.93 219.964 1011.01 220.569 1011.74 221.779C1012.49 222.976 1012.86 224.717 1012.86 227.004C1012.86 229.291 1012.49 231.039 1011.74 232.249C1011.01 233.459 1009.93 234.064 1008.5 234.064C1007.09 234.064 1006.01 233.459 1005.26 232.249C1004.51 231.039 1004.14 229.291 1004.14 227.004C1004.14 224.731 1004.51 222.989 1005.26 221.779C1006.01 220.569 1007.09 219.964 1008.5 219.964ZM1005.56 227.004C1005.56 228.626 1005.71 229.896 1006 230.813L1010.44 221.978C1009.97 221.353 1009.33 221.041 1008.5 221.041C1007.58 221.041 1006.86 221.533 1006.34 222.517C1005.82 223.487 1005.56 224.983 1005.56 227.004ZM1008.5 232.967C1009.43 232.967 1010.16 232.482 1010.68 231.511C1011.2 230.528 1011.46 229.025 1011.46 227.004C1011.46 225.289 1011.29 223.959 1010.96 223.015L1006.52 231.93C1007 232.622 1007.66 232.967 1008.5 232.967Z" fill="url(#paint83_linear_122_130)"/>
<path d="M1009.7 255.601H1012.64V256.658H1005.02V255.601H1008.42V244.392L1005.18 246.327L1004.62 245.429L1008.62 242.956H1009.7V255.601Z" fill="url(#paint84_linear_122_130)"/>
<path d="M1009.7 278.393H1012.64V279.45H1005.02V278.393H1008.42V267.185L1005.18 269.12L1004.62 268.222L1008.62 265.749H1009.7V278.393Z" fill="url(#paint85_linear_122_130)"/>
<path d="M1008.5 288.342C1009.93 288.342 1011.01 288.947 1011.74 290.157C1012.49 291.354 1012.86 293.096 1012.86 295.383C1012.86 297.669 1012.49 299.418 1011.74 300.628C1011.01 301.838 1009.93 302.443 1008.5 302.443C1007.09 302.443 1006.01 301.838 1005.26 300.628C1004.51 299.418 1004.14 297.669 1004.14 295.383C1004.14 293.109 1004.51 291.367 1005.26 290.157C1006.01 288.947 1007.09 288.342 1008.5 288.342ZM1005.56 295.383C1005.56 297.005 1005.71 298.274 1006 299.192L1010.44 290.357C1009.97 289.732 1009.33 289.419 1008.5 289.419C1007.58 289.419 1006.86 289.911 1006.34 290.895C1005.82 291.866 1005.56 293.362 1005.56 295.383ZM1008.5 301.346C1009.43 301.346 1010.16 300.86 1010.68 299.89C1011.2 298.906 1011.46 297.404 1011.46 295.383C1011.46 293.667 1011.29 292.338 1010.96 291.394L1006.52 300.309C1007 301 1007.66 301.346 1008.5 301.346Z" fill="url(#paint86_linear_122_130)"/>
<path d="M1009.7 323.979H1012.64V325.036H1005.02V323.979H1008.42V312.771L1005.18 314.705L1004.62 313.808L1008.62 311.335H1009.7V323.979Z" fill="url(#paint87_linear_122_130)"/>
<path d="M1008.5 333.928C1009.93 333.928 1011.01 334.533 1011.74 335.743C1012.49 336.94 1012.86 338.681 1012.86 340.968C1012.86 343.255 1012.49 345.003 1011.74 346.213C1011.01 347.423 1009.93 348.028 1008.5 348.028C1007.09 348.028 1006.01 347.423 1005.26 346.213C1004.51 345.003 1004.14 343.255 1004.14 340.968C1004.14 338.695 1004.51 336.953 1005.26 335.743C1006.01 334.533 1007.09 333.928 1008.5 333.928ZM1005.56 340.968C1005.56 342.59 1005.71 343.86 1006 344.777L1010.44 335.942C1009.97 335.317 1009.33 335.005 1008.5 335.005C1007.58 335.005 1006.86 335.497 1006.34 336.481C1005.82 337.451 1005.56 338.947 1005.56 340.968ZM1008.5 346.931C1009.43 346.931 1010.16 346.446 1010.68 345.475C1011.2 344.492 1011.46 342.989 1011.46 340.968C1011.46 339.253 1011.29 337.923 1010.96 336.979L1006.52 345.894C1007 346.586 1007.66 346.931 1008.5 346.931Z" fill="url(#paint88_linear_122_130)"/>
<path d="M1045.64 128.793C1047.07 128.793 1048.15 129.398 1048.88 130.608C1049.63 131.804 1050 133.546 1050 135.833C1050 138.12 1049.63 139.868 1048.88 141.078C1048.15 142.288 1047.07 142.893 1045.64 142.893C1044.23 142.893 1043.15 142.288 1042.4 141.078C1041.65 139.868 1041.28 138.12 1041.28 135.833C1041.28 133.559 1041.65 131.818 1042.4 130.608C1043.15 129.398 1044.23 128.793 1045.64 128.793ZM1042.7 135.833C1042.7 137.455 1042.85 138.725 1043.14 139.642L1047.58 130.807C1047.11 130.182 1046.47 129.87 1045.64 129.87C1044.72 129.87 1044 130.362 1043.48 131.346C1042.96 132.316 1042.7 133.812 1042.7 135.833ZM1045.64 141.796C1046.57 141.796 1047.3 141.311 1047.82 140.34C1048.34 139.356 1048.6 137.854 1048.6 135.833C1048.6 134.118 1048.43 132.788 1048.1 131.844L1043.66 140.759C1044.14 141.45 1044.8 141.796 1045.64 141.796Z" fill="url(#paint89_linear_122_130)"/>
<path d="M1046.84 164.429H1049.78V165.486H1042.16V164.429H1045.56V153.221L1042.32 155.156L1041.76 154.258L1045.76 151.785H1046.84V164.429Z" fill="url(#paint90_linear_122_130)"/>
<path d="M1046.84 187.222H1049.78V188.279H1042.16V187.222H1045.56V176.014L1042.32 177.948L1041.76 177.051L1045.76 174.578H1046.84V187.222Z" fill="url(#paint91_linear_122_130)"/>
<path d="M1045.64 197.171C1047.07 197.171 1048.15 197.776 1048.88 198.986C1049.63 200.183 1050 201.924 1050 204.211C1050 206.498 1049.63 208.247 1048.88 209.457C1048.15 210.666 1047.07 211.271 1045.64 211.271C1044.23 211.271 1043.15 210.666 1042.4 209.457C1041.65 208.247 1041.28 206.498 1041.28 204.211C1041.28 201.938 1041.65 200.196 1042.4 198.986C1043.15 197.776 1044.23 197.171 1045.64 197.171ZM1042.7 204.211C1042.7 205.833 1042.85 207.103 1043.14 208.021L1047.58 199.186C1047.11 198.561 1046.47 198.248 1045.64 198.248C1044.72 198.248 1044 198.74 1043.48 199.724C1042.96 200.695 1042.7 202.19 1042.7 204.211ZM1045.64 210.174C1046.57 210.174 1047.3 209.689 1047.82 208.719C1048.34 207.735 1048.6 206.232 1048.6 204.211C1048.6 202.496 1048.43 201.167 1048.1 200.223L1043.66 209.137C1044.14 209.829 1044.8 210.174 1045.64 210.174Z" fill="url(#paint92_linear_122_130)"/>
<path d="M1045.64 219.964C1047.07 219.964 1048.15 220.569 1048.88 221.779C1049.63 222.976 1050 224.717 1050 227.004C1050 229.291 1049.63 231.039 1048.88 232.249C1048.15 233.459 1047.07 234.064 1045.64 234.064C1044.23 234.064 1043.15 233.459 1042.4 232.249C1041.65 231.039 1041.28 229.291 1041.28 227.004C1041.28 224.731 1041.65 222.989 1042.4 221.779C1043.15 220.569 1044.23 219.964 1045.64 219.964ZM1042.7 227.004C1042.7 228.626 1042.85 229.896 1043.14 230.813L1047.58 221.978C1047.11 221.353 1046.47 221.041 1045.64 221.041C1044.72 221.041 1044 221.533 1043.48 222.517C1042.96 223.487 1042.7 224.983 1042.7 227.004ZM1045.64 232.967C1046.57 232.967 1047.3 232.482 1047.82 231.511C1048.34 230.528 1048.6 229.025 1048.6 227.004C1048.6 225.289 1048.43 223.959 1048.1 223.015L1043.66 231.93C1044.14 232.622 1044.8 232.967 1045.64 232.967Z" fill="url(#paint93_linear_122_130)"/>
</g>
</g>
<defs>
<filter id="filter0_f_122_130" x="-488.19" y="-580.19" width="2141.38" height="1500.38" filterUnits="userSpaceOnUse" color-interpolation-filters="sRGB">
<feFlood flood-opacity="0" result="BackgroundImageFix"/>
<feBlend mode="normal" in="SourceGraphic" in2="BackgroundImageFix" result="shape"/>
<feGaussianBlur stdDeviation="200.095" result="effect1_foregroundBlur_122_130"/>
</filter>
<linearGradient id="paint0_linear_122_130" x1="122.5" y1="406" x2="122.5" y2="717.381" gradientUnits="userSpaceOnUse">
<stop stop-color="#F7DD43"/>
<stop offset="1" stop-color="#F7DD43" stop-opacity="0"/>
</linearGradient>
<linearGradient id="paint1_linear_122_130" x1="122.5" y1="406" x2="122.5" y2="717.381" gradientUnits="userSpaceOnUse">
<stop stop-color="#F7DD43"/>
<stop offset="1" stop-color="#F7DD43" stop-opacity="0"/>
</linearGradient>
<linearGradient id="paint2_linear_122_130" x1="122.5" y1="406" x2="122.5" y2="717.381" gradientUnits="userSpaceOnUse">
<stop stop-color="#F7DD43"/>
<stop offset="1" stop-color="#F7DD43" stop-opacity="0"/>
</linearGradient>
<linearGradient id="paint3_linear_122_130" x1="122.5" y1="406" x2="122.5" y2="717.381" gradientUnits="userSpaceOnUse">
<stop stop-color="#F7DD43"/>
<stop offset="1" stop-color="#F7DD43" stop-opacity="0"/>
</linearGradient>
<linearGradient id="paint4_linear_122_130" x1="122.5" y1="406" x2="122.5" y2="717.381" gradientUnits="userSpaceOnUse">
<stop stop-color="#F7DD43"/>
<stop offset="1" stop-color="#F7DD43" stop-opacity="0"/>
</linearGradient>
<linearGradient id="paint5_linear_122_130" x1="122.5" y1="406" x2="122.5" y2="717.381" gradientUnits="userSpaceOnUse">
<stop stop-color="#F7DD43"/>
<stop offset="1" stop-color="#F7DD43" stop-opacity="0"/>
</linearGradient>
<linearGradient id="paint6_linear_122_130" x1="122.5" y1="406" x2="122.5" y2="717.381" gradientUnits="userSpaceOnUse">
<stop stop-color="#F7DD43"/>
<stop offset="1" stop-color="#F7DD43" stop-opacity="0"/>
</linearGradient>
<linearGradient id="paint7_linear_122_130" x1="122.5" y1="406" x2="122.5" y2="717.381" gradientUnits="userSpaceOnUse">
<stop stop-color="#F7DD43"/>
<stop offset="1" stop-color="#F7DD43" stop-opacity="0"/>
</linearGradient>
<linearGradient id="paint8_linear_122_130" x1="122.5" y1="406" x2="122.5" y2="717.381" gradientUnits="userSpaceOnUse">
<stop stop-color="#F7DD43"/>
<stop offset="1" stop-color="#F7DD43" stop-opacity="0"/>
</linearGradient>
<linearGradient id="paint9_linear_122_130" x1="122.5" y1="406" x2="122.5" y2="717.381" gradientUnits="userSpaceOnUse">
<stop stop-color="#F7DD43"/>
<stop offset="1" stop-color="#F7DD43" stop-opacity="0"/>
</linearGradient>
<linearGradient id="paint10_linear_122_130" x1="122.5" y1="406" x2="122.5" y2="717.381" gradientUnits="userSpaceOnUse">
<stop stop-color="#F7DD43"/>
<stop offset="1" stop-color="#F7DD43" stop-opacity="0"/>
</linearGradient>
<linearGradient id="paint11_linear_122_130" x1="122.5" y1="406" x2="122.5" y2="717.381" gradientUnits="userSpaceOnUse">
<stop stop-color="#F7DD43"/>
<stop offset="1" stop-color="#F7DD43" stop-opacity="0"/>
</linearGradient>
<linearGradient id="paint12_linear_122_130" x1="122.5" y1="406" x2="122.5" y2="717.381" gradientUnits="userSpaceOnUse">
<stop stop-color="#F7DD43"/>
<stop offset="1" stop-color="#F7DD43" stop-opacity="0"/>
</linearGradient>
<linearGradient id="paint13_linear_122_130" x1="122.5" y1="406" x2="122.5" y2="717.381" gradientUnits="userSpaceOnUse">
<stop stop-color="#F7DD43"/>
<stop offset="1" stop-color="#F7DD43" stop-opacity="0"/>
</linearGradient>
<linearGradient id="paint14_linear_122_130" x1="122.5" y1="406" x2="122.5" y2="717.381" gradientUnits="userSpaceOnUse">
<stop stop-color="#F7DD43"/>
<stop offset="1" stop-color="#F7DD43" stop-opacity="0"/>
</linearGradient>
<linearGradient id="paint15_linear_122_130" x1="122.5" y1="406" x2="122.5" y2="717.381" gradientUnits="userSpaceOnUse">
<stop stop-color="#F7DD43"/>
<stop offset="1" stop-color="#F7DD43" stop-opacity="0"/>
</linearGradient>
<linearGradient id="paint16_linear_122_130" x1="122.5" y1="406" x2="122.5" y2="717.381" gradientUnits="userSpaceOnUse">
<stop stop-color="#F7DD43"/>
<stop offset="1" stop-color="#F7DD43" stop-opacity="0"/>
</linearGradient>
<linearGradient id="paint17_linear_122_130" x1="122.5" y1="406" x2="122.5" y2="717.381" gradientUnits="userSpaceOnUse">
<stop stop-color="#F7DD43"/>
<stop offset="1" stop-color="#F7DD43" stop-opacity="0"/>
</linearGradient>
<linearGradient id="paint18_linear_122_130" x1="122.5" y1="406" x2="122.5" y2="717.381" gradientUnits="userSpaceOnUse">
<stop stop-color="#F7DD43"/>
<stop offset="1" stop-color="#F7DD43" stop-opacity="0"/>
</linearGradient>
<linearGradient id="paint19_linear_122_130" x1="122.5" y1="406" x2="122.5" y2="717.381" gradientUnits="userSpaceOnUse">
<stop stop-color="#F7DD43"/>
<stop offset="1" stop-color="#F7DD43" stop-opacity="0"/>
</linearGradient>
<linearGradient id="paint20_linear_122_130" x1="122.5" y1="406" x2="122.5" y2="717.381" gradientUnits="userSpaceOnUse">
<stop stop-color="#F7DD43"/>
<stop offset="1" stop-color="#F7DD43" stop-opacity="0"/>
</linearGradient>
<linearGradient id="paint21_linear_122_130" x1="122.5" y1="406" x2="122.5" y2="717.381" gradientUnits="userSpaceOnUse">
<stop stop-color="#F7DD43"/>
<stop offset="1" stop-color="#F7DD43" stop-opacity="0"/>
</linearGradient>
<linearGradient id="paint22_linear_122_130" x1="122.5" y1="406" x2="122.5" y2="717.381" gradientUnits="userSpaceOnUse">
<stop stop-color="#F7DD43"/>
<stop offset="1" stop-color="#F7DD43" stop-opacity="0"/>
</linearGradient>
<linearGradient id="paint23_linear_122_130" x1="122.5" y1="406" x2="122.5" y2="717.381" gradientUnits="userSpaceOnUse">
<stop stop-color="#F7DD43"/>
<stop offset="1" stop-color="#F7DD43" stop-opacity="0"/>
</linearGradient>
<linearGradient id="paint24_linear_122_130" x1="122.5" y1="406" x2="122.5" y2="717.381" gradientUnits="userSpaceOnUse">
<stop stop-color="#F7DD43"/>
<stop offset="1" stop-color="#F7DD43" stop-opacity="0"/>
</linearGradient>
<linearGradient id="paint25_linear_122_130" x1="122.5" y1="406" x2="122.5" y2="717.381" gradientUnits="userSpaceOnUse">
<stop stop-color="#F7DD43"/>
<stop offset="1" stop-color="#F7DD43" stop-opacity="0"/>
</linearGradient>
<linearGradient id="paint26_linear_122_130" x1="122.5" y1="406" x2="122.5" y2="717.381" gradientUnits="userSpaceOnUse">
<stop stop-color="#F7DD43"/>
<stop offset="1" stop-color="#F7DD43" stop-opacity="0"/>
</linearGradient>
<linearGradient id="paint27_linear_122_130" x1="122.5" y1="406" x2="122.5" y2="717.381" gradientUnits="userSpaceOnUse">
<stop stop-color="#F7DD43"/>
<stop offset="1" stop-color="#F7DD43" stop-opacity="0"/>
</linearGradient>
<linearGradient id="paint28_linear_122_130" x1="122.5" y1="406" x2="122.5" y2="717.381" gradientUnits="userSpaceOnUse">
<stop stop-color="#F7DD43"/>
<stop offset="1" stop-color="#F7DD43" stop-opacity="0"/>
</linearGradient>
<linearGradient id="paint29_linear_122_130" x1="122.5" y1="406" x2="122.5" y2="717.381" gradientUnits="userSpaceOnUse">
<stop stop-color="#F7DD43"/>
<stop offset="1" stop-color="#F7DD43" stop-opacity="0"/>
</linearGradient>
<linearGradient id="paint30_linear_122_130" x1="122.5" y1="406" x2="122.5" y2="717.381" gradientUnits="userSpaceOnUse">
<stop stop-color="#F7DD43"/>
<stop offset="1" stop-color="#F7DD43" stop-opacity="0"/>
</linearGradient>
<linearGradient id="paint31_linear_122_130" x1="122.5" y1="406" x2="122.5" y2="717.381" gradientUnits="userSpaceOnUse">
<stop stop-color="#F7DD43"/>
<stop offset="1" stop-color="#F7DD43" stop-opacity="0"/>
</linearGradient>
<linearGradient id="paint32_linear_122_130" x1="122.5" y1="406" x2="122.5" y2="717.381" gradientUnits="userSpaceOnUse">
<stop stop-color="#F7DD43"/>
<stop offset="1" stop-color="#F7DD43" stop-opacity="0"/>
</linearGradient>
<linearGradient id="paint33_linear_122_130" x1="122.5" y1="406" x2="122.5" y2="717.381" gradientUnits="userSpaceOnUse">
<stop stop-color="#F7DD43"/>
<stop offset="1" stop-color="#F7DD43" stop-opacity="0"/>
</linearGradient>
<linearGradient id="paint34_linear_122_130" x1="122.5" y1="406" x2="122.5" y2="717.381" gradientUnits="userSpaceOnUse">
<stop stop-color="#F7DD43"/>
<stop offset="1" stop-color="#F7DD43" stop-opacity="0"/>
</linearGradient>
<linearGradient id="paint35_linear_122_130" x1="122.5" y1="406" x2="122.5" y2="717.381" gradientUnits="userSpaceOnUse">
<stop stop-color="#F7DD43"/>
<stop offset="1" stop-color="#F7DD43" stop-opacity="0"/>
</linearGradient>
<linearGradient id="paint36_linear_122_130" x1="122.5" y1="406" x2="122.5" y2="717.381" gradientUnits="userSpaceOnUse">
<stop stop-color="#F7DD43"/>
<stop offset="1" stop-color="#F7DD43" stop-opacity="0"/>
</linearGradient>
<linearGradient id="paint37_linear_122_130" x1="122.5" y1="406" x2="122.5" y2="717.381" gradientUnits="userSpaceOnUse">
<stop stop-color="#F7DD43"/>
<stop offset="1" stop-color="#F7DD43" stop-opacity="0"/>
</linearGradient>
<linearGradient id="paint38_linear_122_130" x1="122.5" y1="406" x2="122.5" y2="717.381" gradientUnits="userSpaceOnUse">
<stop stop-color="#F7DD43"/>
<stop offset="1" stop-color="#F7DD43" stop-opacity="0"/>
</linearGradient>
<linearGradient id="paint39_linear_122_130" x1="122.5" y1="406" x2="122.5" y2="717.381" gradientUnits="userSpaceOnUse">
<stop stop-color="#F7DD43"/>
<stop offset="1" stop-color="#F7DD43" stop-opacity="0"/>
</linearGradient>
<linearGradient id="paint40_linear_122_130" x1="122.5" y1="406" x2="122.5" y2="717.381" gradientUnits="userSpaceOnUse">
<stop stop-color="#F7DD43"/>
<stop offset="1" stop-color="#F7DD43" stop-opacity="0"/>
</linearGradient>
<linearGradient id="paint41_linear_122_130" x1="122.5" y1="406" x2="122.5" y2="717.381" gradientUnits="userSpaceOnUse">
<stop stop-color="#F7DD43"/>
<stop offset="1" stop-color="#F7DD43" stop-opacity="0"/>
</linearGradient>
<linearGradient id="paint42_linear_122_130" x1="122.5" y1="406" x2="122.5" y2="717.381" gradientUnits="userSpaceOnUse">
<stop stop-color="#F7DD43"/>
<stop offset="1" stop-color="#F7DD43" stop-opacity="0"/>
</linearGradient>
<linearGradient id="paint43_linear_122_130" x1="122.5" y1="406" x2="122.5" y2="717.381" gradientUnits="userSpaceOnUse">
<stop stop-color="#F7DD43"/>
<stop offset="1" stop-color="#F7DD43" stop-opacity="0"/>
</linearGradient>
<linearGradient id="paint44_linear_122_130" x1="122.5" y1="406" x2="122.5" y2="717.381" gradientUnits="userSpaceOnUse">
<stop stop-color="#F7DD43"/>
<stop offset="1" stop-color="#F7DD43" stop-opacity="0"/>
</linearGradient>
<linearGradient id="paint45_linear_122_130" x1="122.5" y1="406" x2="122.5" y2="717.381" gradientUnits="userSpaceOnUse">
<stop stop-color="#F7DD43"/>
<stop offset="1" stop-color="#F7DD43" stop-opacity="0"/>
</linearGradient>
<linearGradient id="paint46_linear_122_130" x1="122.5" y1="406" x2="122.5" y2="717.381" gradientUnits="userSpaceOnUse">
<stop stop-color="#F7DD43"/>
<stop offset="1" stop-color="#F7DD43" stop-opacity="0"/>
</linearGradient>
<linearGradient id="paint47_linear_122_130" x1="1008.5" y1="106" x2="1008.5" y2="404.818" gradientUnits="userSpaceOnUse">
<stop stop-color="#F7DD43"/>
<stop offset="1" stop-color="#F7DD43" stop-opacity="0"/>
</linearGradient>
<linearGradient id="paint48_linear_122_130" x1="1008.5" y1="106" x2="1008.5" y2="404.818" gradientUnits="userSpaceOnUse">
<stop stop-color="#F7DD43"/>
<stop offset="1" stop-color="#F7DD43" stop-opacity="0"/>
</linearGradient>
<linearGradient id="paint49_linear_122_130" x1="1008.5" y1="106" x2="1008.5" y2="404.818" gradientUnits="userSpaceOnUse">
<stop stop-color="#F7DD43"/>
<stop offset="1" stop-color="#F7DD43" stop-opacity="0"/>
</linearGradient>
<linearGradient id="paint50_linear_122_130" x1="1008.5" y1="106" x2="1008.5" y2="404.818" gradientUnits="userSpaceOnUse">
<stop stop-color="#F7DD43"/>
<stop offset="1" stop-color="#F7DD43" stop-opacity="0"/>
</linearGradient>
<linearGradient id="paint51_linear_122_130" x1="1008.5" y1="106" x2="1008.5" y2="404.818" gradientUnits="userSpaceOnUse">
<stop stop-color="#F7DD43"/>
<stop offset="1" stop-color="#F7DD43" stop-opacity="0"/>
</linearGradient>
<linearGradient id="paint52_linear_122_130" x1="1008.5" y1="106" x2="1008.5" y2="404.818" gradientUnits="userSpaceOnUse">
<stop stop-color="#F7DD43"/>
<stop offset="1" stop-color="#F7DD43" stop-opacity="0"/>
</linearGradient>
<linearGradient id="paint53_linear_122_130" x1="1008.5" y1="106" x2="1008.5" y2="404.818" gradientUnits="userSpaceOnUse">
<stop stop-color="#F7DD43"/>
<stop offset="1" stop-color="#F7DD43" stop-opacity="0"/>
</linearGradient>
<linearGradient id="paint54_linear_122_130" x1="1008.5" y1="106" x2="1008.5" y2="404.818" gradientUnits="userSpaceOnUse">
<stop stop-color="#F7DD43"/>
<stop offset="1" stop-color="#F7DD43" stop-opacity="0"/>
</linearGradient>
<linearGradient id="paint55_linear_122_130" x1="1008.5" y1="106" x2="1008.5" y2="404.818" gradientUnits="userSpaceOnUse">
<stop stop-color="#F7DD43"/>
<stop offset="1" stop-color="#F7DD43" stop-opacity="0"/>
</linearGradient>
<linearGradient id="paint56_linear_122_130" x1="1008.5" y1="106" x2="1008.5" y2="404.818" gradientUnits="userSpaceOnUse">
<stop stop-color="#F7DD43"/>
<stop offset="1" stop-color="#F7DD43" stop-opacity="0"/>
</linearGradient>
<linearGradient id="paint57_linear_122_130" x1="1008.5" y1="106" x2="1008.5" y2="404.818" gradientUnits="userSpaceOnUse">
<stop stop-color="#F7DD43"/>
<stop offset="1" stop-color="#F7DD43" stop-opacity="0"/>
</linearGradient>
<linearGradient id="paint58_linear_122_130" x1="1008.5" y1="106" x2="1008.5" y2="404.818" gradientUnits="userSpaceOnUse">
<stop stop-color="#F7DD43"/>
<stop offset="1" stop-color="#F7DD43" stop-opacity="0"/>
</linearGradient>
<linearGradient id="paint59_linear_122_130" x1="1008.5" y1="106" x2="1008.5" y2="404.818" gradientUnits="userSpaceOnUse">
<stop stop-color="#F7DD43"/>
<stop offset="1" stop-color="#F7DD43" stop-opacity="0"/>
</linearGradient>
<linearGradient id="paint60_linear_122_130" x1="1008.5" y1="106" x2="1008.5" y2="404.818" gradientUnits="userSpaceOnUse">
<stop stop-color="#F7DD43"/>
<stop offset="1" stop-color="#F7DD43" stop-opacity="0"/>
</linearGradient>
<linearGradient id="paint61_linear_122_130" x1="1008.5" y1="106" x2="1008.5" y2="404.818" gradientUnits="userSpaceOnUse">
<stop stop-color="#F7DD43"/>
<stop offset="1" stop-color="#F7DD43" stop-opacity="0"/>
</linearGradient>
<linearGradient id="paint62_linear_122_130" x1="1008.5" y1="106" x2="1008.5" y2="404.818" gradientUnits="userSpaceOnUse">
<stop stop-color="#F7DD43"/>
<stop offset="1" stop-color="#F7DD43" stop-opacity="0"/>
</linearGradient>
<linearGradient id="paint63_linear_122_130" x1="1008.5" y1="106" x2="1008.5" y2="404.818" gradientUnits="userSpaceOnUse">
<stop stop-color="#F7DD43"/>
<stop offset="1" stop-color="#F7DD43" stop-opacity="0"/>
</linearGradient>
<linearGradient id="paint64_linear_122_130" x1="1008.5" y1="106" x2="1008.5" y2="404.818" gradientUnits="userSpaceOnUse">
<stop stop-color="#F7DD43"/>
<stop offset="1" stop-color="#F7DD43" stop-opacity="0"/>
</linearGradient>
<linearGradient id="paint65_linear_122_130" x1="1008.5" y1="106" x2="1008.5" y2="404.818" gradientUnits="userSpaceOnUse">
<stop stop-color="#F7DD43"/>
<stop offset="1" stop-color="#F7DD43" stop-opacity="0"/>
</linearGradient>
<linearGradient id="paint66_linear_122_130" x1="1008.5" y1="106" x2="1008.5" y2="404.818" gradientUnits="userSpaceOnUse">
<stop stop-color="#F7DD43"/>
<stop offset="1" stop-color="#F7DD43" stop-opacity="0"/>
</linearGradient>
<linearGradient id="paint67_linear_122_130" x1="1008.5" y1="106" x2="1008.5" y2="404.818" gradientUnits="userSpaceOnUse">
<stop stop-color="#F7DD43"/>
<stop offset="1" stop-color="#F7DD43" stop-opacity="0"/>
</linearGradient>
<linearGradient id="paint68_linear_122_130" x1="1008.5" y1="106" x2="1008.5" y2="404.818" gradientUnits="userSpaceOnUse">
<stop stop-color="#F7DD43"/>
<stop offset="1" stop-color="#F7DD43" stop-opacity="0"/>
</linearGradient>
<linearGradient id="paint69_linear_122_130" x1="1008.5" y1="106" x2="1008.5" y2="404.818" gradientUnits="userSpaceOnUse">
<stop stop-color="#F7DD43"/>
<stop offset="1" stop-color="#F7DD43" stop-opacity="0"/>
</linearGradient>
<linearGradient id="paint70_linear_122_130" x1="1008.5" y1="106" x2="1008.5" y2="404.818" gradientUnits="userSpaceOnUse">
<stop stop-color="#F7DD43"/>
<stop offset="1" stop-color="#F7DD43" stop-opacity="0"/>
</linearGradient>
<linearGradient id="paint71_linear_122_130" x1="1008.5" y1="106" x2="1008.5" y2="404.818" gradientUnits="userSpaceOnUse">
<stop stop-color="#F7DD43"/>
<stop offset="1" stop-color="#F7DD43" stop-opacity="0"/>
</linearGradient>
<linearGradient id="paint72_linear_122_130" x1="1008.5" y1="106" x2="1008.5" y2="404.818" gradientUnits="userSpaceOnUse">
<stop stop-color="#F7DD43"/>
<stop offset="1" stop-color="#F7DD43" stop-opacity="0"/>
</linearGradient>
<linearGradient id="paint73_linear_122_130" x1="1008.5" y1="106" x2="1008.5" y2="404.818" gradientUnits="userSpaceOnUse">
<stop stop-color="#F7DD43"/>
<stop offset="1" stop-color="#F7DD43" stop-opacity="0"/>
</linearGradient>
<linearGradient id="paint74_linear_122_130" x1="1008.5" y1="106" x2="1008.5" y2="404.818" gradientUnits="userSpaceOnUse">
<stop stop-color="#F7DD43"/>
<stop offset="1" stop-color="#F7DD43" stop-opacity="0"/>
</linearGradient>
<linearGradient id="paint75_linear_122_130" x1="1008.5" y1="106" x2="1008.5" y2="404.818" gradientUnits="userSpaceOnUse">
<stop stop-color="#F7DD43"/>
<stop offset="1" stop-color="#F7DD43" stop-opacity="0"/>
</linearGradient>
<linearGradient id="paint76_linear_122_130" x1="1008.5" y1="106" x2="1008.5" y2="404.818" gradientUnits="userSpaceOnUse">
<stop stop-color="#F7DD43"/>
<stop offset="1" stop-color="#F7DD43" stop-opacity="0"/>
</linearGradient>
<linearGradient id="paint77_linear_122_130" x1="1008.5" y1="106" x2="1008.5" y2="404.818" gradientUnits="userSpaceOnUse">
<stop stop-color="#F7DD43"/>
<stop offset="1" stop-color="#F7DD43" stop-opacity="0"/>
</linearGradient>
<linearGradient id="paint78_linear_122_130" x1="1008.5" y1="106" x2="1008.5" y2="404.818" gradientUnits="userSpaceOnUse">
<stop stop-color="#F7DD43"/>
<stop offset="1" stop-color="#F7DD43" stop-opacity="0"/>
</linearGradient>
<linearGradient id="paint79_linear_122_130" x1="1008.5" y1="106" x2="1008.5" y2="404.818" gradientUnits="userSpaceOnUse">
<stop stop-color="#F7DD43"/>
<stop offset="1" stop-color="#F7DD43" stop-opacity="0"/>
</linearGradient>
<linearGradient id="paint80_linear_122_130" x1="1008.5" y1="106" x2="1008.5" y2="404.818" gradientUnits="userSpaceOnUse">
<stop stop-color="#F7DD43"/>
<stop offset="1" stop-color="#F7DD43" stop-opacity="0"/>
</linearGradient>
<linearGradient id="paint81_linear_122_130" x1="1008.5" y1="106" x2="1008.5" y2="404.818" gradientUnits="userSpaceOnUse">
<stop stop-color="#F7DD43"/>
<stop offset="1" stop-color="#F7DD43" stop-opacity="0"/>
</linearGradient>
<linearGradient id="paint82_linear_122_130" x1="1008.5" y1="106" x2="1008.5" y2="404.818" gradientUnits="userSpaceOnUse">
<stop stop-color="#F7DD43"/>
<stop offset="1" stop-color="#F7DD43" stop-opacity="0"/>
</linearGradient>
<linearGradient id="paint83_linear_122_130" x1="1008.5" y1="106" x2="1008.5" y2="404.818" gradientUnits="userSpaceOnUse">
<stop stop-color="#F7DD43"/>
<stop offset="1" stop-color="#F7DD43" stop-opacity="0"/>
</linearGradient>
<linearGradient id="paint84_linear_122_130" x1="1008.5" y1="106" x2="1008.5" y2="404.818" gradientUnits="userSpaceOnUse">
<stop stop-color="#F7DD43"/>
<stop offset="1" stop-color="#F7DD43" stop-opacity="0"/>
</linearGradient>
<linearGradient id="paint85_linear_122_130" x1="1008.5" y1="106" x2="1008.5" y2="404.818" gradientUnits="userSpaceOnUse">
<stop stop-color="#F7DD43"/>
<stop offset="1" stop-color="#F7DD43" stop-opacity="0"/>
</linearGradient>
<linearGradient id="paint86_linear_122_130" x1="1008.5" y1="106" x2="1008.5" y2="404.818" gradientUnits="userSpaceOnUse">
<stop stop-color="#F7DD43"/>
<stop offset="1" stop-color="#F7DD43" stop-opacity="0"/>
</linearGradient>
<linearGradient id="paint87_linear_122_130" x1="1008.5" y1="106" x2="1008.5" y2="404.818" gradientUnits="userSpaceOnUse">
<stop stop-color="#F7DD43"/>
<stop offset="1" stop-color="#F7DD43" stop-opacity="0"/>
</linearGradient>
<linearGradient id="paint88_linear_122_130" x1="1008.5" y1="106" x2="1008.5" y2="404.818" gradientUnits="userSpaceOnUse">
<stop stop-color="#F7DD43"/>
<stop offset="1" stop-color="#F7DD43" stop-opacity="0"/>
</linearGradient>
<linearGradient id="paint89_linear_122_130" x1="1008.5" y1="106" x2="1008.5" y2="404.818" gradientUnits="userSpaceOnUse">
<stop stop-color="#F7DD43"/>
<stop offset="1" stop-color="#F7DD43" stop-opacity="0"/>
</linearGradient>
<linearGradient id="paint90_linear_122_130" x1="1008.5" y1="106" x2="1008.5" y2="404.818" gradientUnits="userSpaceOnUse">
<stop stop-color="#F7DD43"/>
<stop offset="1" stop-color="#F7DD43" stop-opacity="0"/>
</linearGradient>
<linearGradient id="paint91_linear_122_130" x1="1008.5" y1="106" x2="1008.5" y2="404.818" gradientUnits="userSpaceOnUse">
<stop stop-color="#F7DD43"/>
<stop offset="1" stop-color="#F7DD43" stop-opacity="0"/>
</linearGradient>
<linearGradient id="paint92_linear_122_130" x1="1008.5" y1="106" x2="1008.5" y2="404.818" gradientUnits="userSpaceOnUse">
<stop stop-color="#F7DD43"/>
<stop offset="1" stop-color="#F7DD43" stop-opacity="0"/>
</linearGradient>
<linearGradient id="paint93_linear_122_130" x1="1008.5" y1="106" x2="1008.5" y2="404.818" gradientUnits="userSpaceOnUse">
<stop stop-color="#F7DD43"/>
<stop offset="1" stop-color="#F7DD43" stop-opacity="0"/>
</linearGradient>
<clipPath id="clip0_122_130">
<rect width="1024" height="753" fill="white"/>
</clipPath>
</defs>
</svg>
